# AST/ASF file generated using VICON BodyLanguage
# -----------------------------------------------
:version 1.10
:name VICON
:units
  mass 1.0
  length 0.45
  angle deg
:documentation
   .ast/.asf automatically generated from VICON data using
   VICON BodyBuilder and BodyLanguage model FoxedUp or BRILLIANT.MOD
:root
   order TX TY TZ RX RY RZ
   axis XYZ
   position 0 0 0  
   orientation 0 0 0 
:bonedata
  begin
     id 1 
     name lhipjoint
     direction 0.535335 -0.74333 0.401095 
     length 2.04549 
     axis 0 0 0  XYZ
  end
  begin
     id 2 
     name lfemur
     direction 0.34202 -0.939693 0  
     length 6.95643  
     axis 0 0 20  XYZ
    dof rx ry rz
    limits (-160.0 20.0)
           (-70.0 70.0)
           (-60.0 70.0)
  end
  begin
     id 3 
     name ltibia
     direction 0.34192 -0.939729 0   
     length 5.55969   
     axis 0 0 20   XYZ
    dof rx
    limits (-10.0 170.0)
  end
  begin
     id 4 
     name lfoot
     direction 0.216943 -0.596046 0.773088   
     length 2.27918   
     axis -90 7.62852e-016 20   XYZ
    dof rx rz
    limits (-45.0 90.0)
           (-70.0 20.0)
  end
  begin
     id 5 
     name ltoes
     direction 1.53519e-011 -4.21748e-011 1   
     length 1.05562   
     axis -90 7.62852e-016 20   XYZ
    dof rx
    limits (-90.0 20.0)
  end
  begin
     id 6 
     name rhipjoint
     direction -0.576368 -0.719173 0.38806   
     length 2.1142  
     axis 0 0 0  XYZ 
  end
  begin
     id 7 
     name rfemur
     direction -0.34202 -0.939693 0   
     length 7.07928   
     axis 0 0 -20   XYZ
    dof rx ry rz
    limits (-160.0 20.0)
           (-70.0 70.0)
           (-70.0 60.0)
  end
  begin
     id 8 
     name rtibia
     direction -0.34202 -0.939693 0   
     length 5.79974   
     axis 0 0 -20   XYZ
    dof rx
    limits (-10.0 170.0)
 end
 begin
     id 9 
     name rfoot
     direction -0.189288 -0.520065 0.832888   
     length 2.42173  
     axis -90 -7.62852e-016 -20   XYZ
    dof rx rz
    limits (-45.0 90.0)
           (-20.0 70.0)
  end
  begin
     id 10 
     name rtoes
     direction -1.53574e-011 -4.21658e-011 1   
     length 1.14469   
     axis -90 -7.62852e-016 -20   XYZ
    dof rx
    limits (-90.0 20.0)
  end
  begin
     id 11 
     name lowerback
     direction -0.00135702 0.993803 0.111144   
     length 1.91308   
     axis 0 0 0   XYZ
    dof rx ry rz
    limits (-20.0 45.0)
           (-30.0 30.0)
           (-30.0 30.0)
  end
  begin
     id 12 
     name upperback
     direction -0.0056745 0.999813 0.0184631   
     length 1.9212   
     axis 0 0 0   XYZ
    dof rx ry rz
    limits (-20.0 45.0)
           (-30.0 30.0)
           (-30.0 30.0)
  end
  begin
     id 13 
     name thorax
     direction -0.00733434 0.999426 -0.0330788   
     length 1.94196   
     axis 0 0 0   XYZ
    dof rx ry rz
    limits (-20.0 45.0)
           (-30.0 30.0)
           (-30.0 30.0)
  end
  begin
     id 14 
     name lowerneck
     direction 0.0563074 0.996944 -0.0541571   
     length 2.34257   
     axis 0 0 0   XYZ
    dof rx ry rz
    limits (-20.0 45.0)
           (-30.0 30.0)
           (-30.0 30.0)
  end
  begin
     id 15 
     name upperneck
     direction -0.0544519 0.976166 -0.210085   
     length 2.32506   
     axis 0 0 0   XYZ
    dof rx ry rz
    limits (-20.0 45.0)
           (-30.0 30.0)
           (-30.0 30.0)
  end
  begin
     id 16
     name head
     direction -0.0226035 0.997615 -0.0652205  
     length 2.3648  
     axis 0 0 0   XYZ
    dof rx ry rz
    limits (-20.0 45.0)
           (-30.0 30.0)
           (-30.0 30.0)
  end
  begin
     id 17 
     name lclavicle
     direction 0.92109 0.381297 -0.0787716  
     length 4.0487  
     axis 0 0 0   XYZ
    dof ry rz
    limits (-20.0 10.0)
           (0.0 20.0)
  end
  begin
     id 18 
     name lhumerus
     direction 1 -4.48986e-011 3.56724e-027   
     length 4.94991   
     axis 180 -30 -90   XYZ
    dof rx ry rz
    limits (-60.0 90.0)
           (-90.0 90.0)
           (-90.0 90.0)
  end
  begin
     id 19
     name lradius
     direction 1 -4.48981e-011 8.62147e-027   
     length 2.7606   
     axis 180 -30 -90   XYZ
    dof rx
    limits (-10.0 170.0)
  end
  begin
     id 20
     name lwrist
     direction 1 -4.48989e-011 1.59799e-026   
     length 1.3803   
     axis -1.17785e-014 90 90   XYZ
    dof ry
    limits (-180.0 0.0)
 end
  begin
     id 21 
     name lhand
     direction 1 -4.48896e-011 3.19599e-026   
     length 0.843936   
     axis -2.03931e-014 90 90   XYZ
    dof rx rz
    limits (-90.0 90.0)
           (-45.0 45.0)
  end
  begin
     id 22 
     name lfingers
     direction 1 -4.48887e-011 6.39197e-026   
     length 0.680403   
     axis -4.07862e-014 90 90   XYZ
    dof rx
    limits (0.0 90.0)
  end
  begin
     id 23
     name lthumb
     direction 0.707107 -6.348e-011 0.707107   
     length 0.976926   
     axis -90 45 2.85299e-015   XYZ
    dof rx rz
    limits (-45.0 45.0)
           (-45.0 45.0)
  end
  begin
     id 24 
     name rclavicle
     direction -0.951104 0.307692 -0.026953   
     length 4.21801  
     axis 0 0 0   XYZ 
    dof ry rz
    limits (-10.0 20.0)
           (-20.0 0.0)
  end
  begin
     id 25 
     name rhumerus
     direction -1 -4.4896e-011 -1.8171e-018  
     length 4.32982   
     axis 180 30 90   XYZ
    dof rx ry rz
    limits (-90.0 60.0)
           (-90.0 90.0)
           (-90.0 90.0)
  end
  begin
     id 26 
     name rradius
     direction -1 -4.48959e-011 8.25165e-027   
     length 3.20057   
     axis 180 30 90   XYZ
    dof rx
    limits (-10.0 170.0)
  end
  begin
     id 27 
     name rwrist
     direction -1 -4.48997e-011 1.59799e-026   
     length 1.60029   
     axis -1.17785e-014 -90 -90   XYZ
    dof ry
    limits (-180.0 0.0)
  end
  begin
     id 28
     name rhand
     direction -1 -4.49023e-011 3.19599e-026   
     length 0.960433   
     axis -2.03931e-014 -90 -90   XYZ
    dof rx rz
    limits (-90.0 90.0)
           (-45.0 45.0)
  end
  begin
     id 29
     name rfingers
     direction -1 -4.48802e-011 6.39197e-026   
     length 0.774326   
     axis -4.07862e-014 -90 -90   XYZ
    dof rx
    limits (0.0 90.0)
  end
  begin
     id 30
     name rthumb
     direction -0.707107 -6.34876e-011 0.707107   
     length 1.11178   
     axis -90 -45 -2.85299e-015   XYZ
    dof rx rz
    limits (-45.0 45.0)
           (-45.0 45.0)
  end
:hierarchy
  begin
    root lhipjoint rhipjoint lowerback
    lhipjoint lfemur
    lfemur ltibia
    ltibia lfoot
    lfoot ltoes
    rhipjoint rfemur
    rfemur rtibia
    rtibia rfoot
    rfoot rtoes
    lowerback upperback
    upperback thorax
    thorax lowerneck lclavicle rclavicle
    lowerneck upperneck
    upperneck head
    lclavicle lhumerus
    lhumerus lradius
    lradius lwrist
    lwrist lhand lthumb
    lhand lfingers
    rclavicle rhumerus
    rhumerus rradius
    rradius rwrist
    rwrist rhand rthumb
    rhand rfingers
end

#!OML:ASF C:\KaitlinTest1\Natural Motions\Nikki\Session 2\Nikki.ASF
:FULLY-SPECIFIED
:DEGREES
154
root -13.6658 16.653 4.60621 -112.62 87.8689 -120.917
lowerback -10.9187 -0.882792 2.90242
upperback -3.57218 -1.31114 -1.24661
thorax 2.29403 -0.608659 -3.09378
lowerneck -5.04272 -11.7481 -9.83039
upperneck 6.19452 40.9816 5.92671
head 166.728 62.084 -38.1818
rclavicle -1.7344e-014 -1.47101e-014
rhumerus -40.4722 -29.5968 -79.8666
rradius 16.8702
rwrist 27.8259
rhand -36.7224 2.12576
rfingers 7.12502
rthumb -9.80682 -27.6259
lclavicle -1.7344e-014 -1.47101e-014
lhumerus -39.9723 16.758 80.8556
lradius 20.2736
lwrist -42.0814
lhand -33.4583 3.36379
lfingers 7.12502
lthumb -6.65667 33.2392
rfemur -5.6182 -13.7468 20.0279
rtibia 11.8974
rfoot -11.3756 10.8945
rtoes 5.32743e-014
lfemur -11.1026 14.4941 -18.821
ltibia 15.6707
lfoot -4.95355 -15.1695
ltoes 6.52014e-014
155
root -13.666 16.6521 4.60697 -112.492 87.8385 -120.794
lowerback -10.929 -0.876629 2.92515
upperback -3.55078 -1.30707 -1.23367
thorax 2.32202 -0.606165 -3.0932
lowerneck -5.05425 -11.7453 -9.84891
upperneck 6.18457 40.9743 5.92009
head 166.76 62.0886 -38.1613
rclavicle 5.36719e-015 3.57812e-015
rhumerus -40.4349 -29.5629 -79.8985
rradius 16.9005
rwrist 27.7997
rhand -36.7168 2.14705
rfingers 7.12502
rthumb -9.80138 -27.6048
lclavicle 5.36719e-015 3.57812e-015
lhumerus -39.924 16.752 80.8898
lradius 20.2617
lwrist -42.0321
lhand -33.488 3.39502
lfingers 7.12502
lthumb -6.68532 33.2695
rfemur -5.64017 -13.8455 20.0802
rtibia 11.9031
rfoot -11.4313 10.9576
rtoes 6.44062e-014
lfemur -11.1185 14.5181 -18.7884
ltibia 15.6849
lfoot -4.96803 -15.1836
ltoes 2.22639e-014
156
root -13.6653 16.6525 4.60719 -112.475 87.8289 -120.78
lowerback -10.9252 -0.873147 2.94632
upperback -3.54656 -1.3044 -1.2464
thorax 2.32363 -0.604909 -3.11809
lowerneck -5.05991 -11.7691 -9.80859
upperneck 6.18861 40.9555 5.91806
head 166.621 62.1404 -38.2659
rclavicle -3.23025e-015 -9.54166e-015
rhumerus -40.406 -29.5077 -79.9794
rradius 16.9344
rwrist 27.6937
rhand -36.6904 2.10211
rfingers 7.12502
rthumb -9.77594 -27.651
lclavicle -3.23025e-015 -9.54166e-015
lhumerus -39.9411 16.7915 80.8127
lradius 20.2818
lwrist -42.3031
lhand -33.5353 3.33063
lfingers 7.12502
lthumb -6.73096 33.2036
rfemur -5.6467 -13.801 20.0806
rtibia 11.9179
rfoot -11.3978 10.9277
rtoes -5.96354e-014
lfemur -11.1152 14.522 -18.7799
ltibia 15.6826
lfoot -4.98223 -15.2197
ltoes -4.6118e-014
157
root -13.6657 16.6517 4.6071 -112.626 87.8294 -120.962
lowerback -10.9295 -0.877591 2.95308
upperback -3.55905 -1.3106 -1.24329
thorax 2.31239 -0.608155 -3.11935
lowerneck -5.03208 -11.7717 -9.81916
upperneck 6.16516 40.8496 5.88451
head 166.52 62.2558 -38.3137
rclavicle 2.6662e-014 4.77083e-015
rhumerus -40.4263 -29.4728 -79.9814
rradius 16.954
rwrist 27.6563
rhand -36.7046 2.14429
rfingers 7.12502
rthumb -9.78964 -27.6082
lclavicle 2.6662e-014 4.77083e-015
lhumerus -39.9575 16.7138 80.8584
lradius 20.2957
lwrist -42.146
lhand -33.5917 3.22969
lfingers 7.12502
lthumb -6.78538 33.101
rfemur -5.68076 -13.9001 20.1016
rtibia 11.9136
rfoot -11.4395 10.9922
rtoes 2.38542e-014
lfemur -11.1667 14.5444 -18.797
ltibia 15.6857
lfoot -4.9634 -15.2472
ltoes -7.95139e-014
158
root -13.6659 16.6531 4.60775 -113.439 87.8535 -121.772
lowerback -10.8965 -0.885693 2.90537
upperback -3.56017 -1.31536 -1.25039
thorax 2.29389 -0.610899 -3.09956
lowerneck -5.02184 -11.7529 -9.84182
upperneck 6.17633 40.9004 5.9036
head 166.659 62.1904 -38.2208
rclavicle -2.47735e-014 -7.55382e-015
rhumerus -40.4446 -29.5559 -79.9158
rradius 16.9288
rwrist 27.7811
rhand -36.697 2.18192
rfingers 7.12502
rthumb -9.78229 -27.5709
lclavicle -2.47735e-014 -7.55382e-015
lhumerus -39.9888 16.8506 80.7844
lradius 20.3042
lwrist -42.1545
lhand -33.6611 3.18746
lfingers 7.12502
lthumb -6.85247 33.0566
rfemur -5.67731 -13.7929 20.0472
rtibia 11.9195
rfoot -11.3915 10.9107
rtoes -6.52014e-014
lfemur -11.1555 14.5521 -18.8357
ltibia 15.6678
lfoot -4.94307 -15.2955
ltoes -2.22639e-014
159
root -13.6654 16.6534 4.60813 -113.159 87.816 -121.478
lowerback -10.879 -0.881381 2.9463
upperback -3.54688 -1.31462 -1.2433
thorax 2.29733 -0.610676 -3.115
lowerneck -5.02714 -11.7525 -9.83937
upperneck 6.18461 40.9329 5.91478
head 166.692 62.1559 -38.2051
rclavicle 1.40889e-014 9.14409e-015
rhumerus -40.4317 -29.5011 -79.9601
rradius 16.9603
rwrist 27.709
rhand -36.6948 2.11127
rfingers 7.12502
rthumb -9.7802 -27.6416
lclavicle 1.40889e-014 9.14409e-015
lhumerus -39.9178 16.6718 80.8537
lradius 20.2833
lwrist -42.0298
lhand -33.634 3.19379
lfingers 7.12502
lthumb -6.8263 33.0637
rfemur -5.65326 -13.7863 20.0851
rtibia 11.9102
rfoot -11.3806 10.8878
rtoes -1.35174e-014
lfemur -11.1389 14.5192 -18.7818
ltibia 15.6736
lfoot -4.93598 -15.2439
ltoes -3.49861e-014
160
root -13.6651 16.6539 4.60795 -113.198 87.8295 -121.52
lowerback -10.8433 -0.884799 2.91895
upperback -3.55987 -1.31575 -1.22335
thorax 2.26541 -0.611846 -3.07784
lowerneck -5.02476 -11.7325 -9.88488
upperneck 6.2 40.9998 5.91895
head 166.753 62.1062 -38.1701
rclavicle 6.88292e-015 -1.98785e-015
rhumerus -40.4582 -29.4052 -79.9522
rradius 16.9919
rwrist 27.6237
rhand -36.698 2.14075
rfingers 7.12502
rthumb -9.7833 -27.612
lclavicle 6.88292e-015 -1.98785e-015
lhumerus -39.945 16.705 80.8793
lradius 20.283
lwrist -41.9972
lhand -33.6807 3.19988
lfingers 7.12502
lthumb -6.87138 33.0684
rfemur -5.65991 -13.7939 20.0709
rtibia 11.9174
rfoot -11.4068 10.9063
rtoes 2.46493e-014
lfemur -11.1261 14.5037 -18.7967
ltibia 15.6506
lfoot -4.95197 -15.22
ltoes -7.95139e-015
161
root -13.6655 16.6544 4.60845 -113.67 87.8135 -122.018
lowerback -10.8498 -0.897119 2.92526
upperback -3.55345 -1.33297 -1.22824
thorax 2.27406 -0.620269 -3.08886
lowerneck -5.04418 -11.7542 -9.84528
upperneck 6.18433 40.937 5.90033
head 166.593 62.1923 -38.2804
rclavicle 9.49197e-015 1.15295e-014
rhumerus -40.4228 -29.3171 -80.0345
rradius 17.0185
rwrist 27.5437
rhand -36.6978 2.14779
rfingers 7.12502
rthumb -9.78304 -27.605
lclavicle 9.49197e-015 1.15295e-014
lhumerus -39.9485 16.765 80.8116
lradius 20.2984
lwrist -42.127
lhand -33.6215 3.20284
lfingers 7.12502
lthumb -6.81416 33.0732
rfemur -5.68115 -13.8061 20.0888
rtibia 11.9027
rfoot -11.3923 10.8985
rtoes 4.92986e-014
lfemur -11.1749 14.5274 -18.7975
ltibia 15.6698
lfoot -4.93421 -15.2796
ltoes 5.40694e-014
162
root -13.6657 16.6546 4.60862 -113.865 87.8283 -122.219
lowerback -10.7754 -0.897491 2.91316
upperback -3.59813 -1.32873 -1.22993
thorax 2.18737 -0.619924 -3.08081
lowerneck -4.9892 -11.7503 -9.86047
upperneck 6.22278 41.0023 5.92081
head 166.628 62.1075 -38.2488
rclavicle -7.62836e-015 7.95139e-016
rhumerus -40.521 -29.2879 -79.9826
rradius 17.0299
rwrist 27.5503
rhand -36.7072 2.15446
rfingers 7.12502
rthumb -9.79221 -27.5979
lclavicle -7.62836e-015 7.95139e-016
lhumerus -40.0241 16.7218 80.8232
lradius 20.3202
lwrist -42.0325
lhand -33.6363 3.147
lfingers 7.12502
lthumb -6.82848 33.0169
rfemur -5.70348 -13.83 20.0752
rtibia 11.9268
rfoot -11.4387 10.8988
rtoes -1.82882e-014
lfemur -11.1839 14.5044 -18.8159
ltibia 15.6676
lfoot -4.92255 -15.263
ltoes 7.95139e-015
